<svg version="1.2" xmlns="http://www.w3.org/2000/svg" viewBox="0 0 160 160" width="160" height="160">
	<title>customFilterIcon-svg</title>
	<style>
		.s0 { fill: #000000 } 
	</style>
	<path id="CF" class="s0" d="m60 56.9q-4.1 0-7.4 1.7-3.2 1.6-5.4 4.7-2.2 3-3.4 7.4-1.1 4.3-1.1 9.8 0 7.4 1.8 12.6 1.9 5 5.7 7.8 3.8 2.7 9.8 2.7 4.3 0 8.5-1 4.2-1 9.2-2.6v12.3q-4.6 1.8-9 2.7-4.4 0.8-10 0.8-10.7 0-17.6-4.5-6.8-4.3-10.1-12.3-3.4-8-3.4-18.6 0-7.9 2.2-14.4 2.2-6.5 6.3-11.3 4.1-4.7 10.1-7.4 6.1-2.5 13.8-2.5 5.2 0 10.4 1.3 5.2 1.2 9.9 3.5l-4.7 11.9q-3.8-1.8-7.8-3.2-3.9-1.4-7.8-1.4zm46.8 30.6v27.3h-14.4v-69h39.6v11.9h-25.2v17.8h23.5v12z"/>
	<path id="Shape 1" fill-rule="evenodd" class="s0" d="m155 35.6v88.8q0 12.6-9 21.6-9 9-21.6 9h-88.8q-12.6 0-21.6-9-9-9-9-21.6v-88.8q0-12.6 9-21.6 9-9 21.6-9h88.8q12.6 0 21.6 9 9 9 9 21.6zm-30.6-17h-88.8q-7 0-12 5-5 5-5 12v88.8q0 7 5 12 5 5 12 5h88.8q7 0 12-5 5-5 5-12v-88.8q0-7-5-12-5-5-12-5z"/>
</svg>